HIERARCHY
ROOT Hips
{
	OFFSET 0.00000 0.00000 0.00000
	CHANNELS 6 Xposition Yposition Zposition Yrotation Zrotation Xrotation 
	JOINT Lumbar
	{
		OFFSET 0 0 0
		CHANNELS 3 Zrotation Xrotation Yrotation
		JOINT Neck
		{
			OFFSET 0.00 0.2701 0.00
			CHANNELS 3 Zrotation Xrotation Yrotation
			End Site
			{
				OFFSET 0.00 0.1379 0.00
			}
		}
		JOINT RightShoulder
		{
			OFFSET 0.0119 0.2289 0.1181
			CHANNELS 3 Zrotation Xrotation Yrotation
			JOINT RightElbow
			{
				OFFSET 0.00 -0.1475 0.00
				CHANNELS 2 Zrotation Yrotation
				JOINT RightWrist
				{
					OFFSET 0.00 -0.1605 0.00
					CHANNELS 2 Zrotation Xrotation
					End Site
					{
						OFFSET 0.0040 -0.1068 0.0006
					}
				}
			}
		}
		JOINT LeftShoulder
		{
			OFFSET 0.0119 0.2289 -0.1181
			CHANNELS 3 Zrotation Xrotation Yrotation
			JOINT LeftElbow
			{
				OFFSET 0.00 -0.1475 0.00
				CHANNELS 2 Zrotation Yrotation
				JOINT LeftWrist
				{
					OFFSET 0.00 -0.1605 0.00
					CHANNELS 2 Zrotation Xrotation
					End Site
					{
						OFFSET 0.0040 -0.1068 -0.0006
					}
				}
			}
		}
	}
	JOINT RightHip
	{
		OFFSET 0.0316 -0.0424 0.0458
		CHANNELS 3 Zrotation Xrotation Yrotation
		JOINT RightKnee
		{
			OFFSET 0.00 -0.2438 0.00
			CHANNELS 1 Zrotation
			JOINT RightAnkle
			{
				OFFSET 0.00 -0.2449 0.00
				CHANNELS 3 Zrotation Xrotation Yrotation
				End Site
				{
					OFFSET 0.1237 -0.0542 0.0051
				}
			}
		}
	}
	JOINT LeftHip
	{
		OFFSET 0.0316 -0.0424 -0.0458
		CHANNELS 3 Zrotation Xrotation Yrotation
		JOINT LeftKnee
		{
			OFFSET 0.00 -0.2438 0.00
			CHANNELS 1 Zrotation
			JOINT LeftAnkle
			{
				OFFSET 0.00 -0.2449 0.00
				CHANNELS 3 Zrotation Xrotation Yrotation
				End Site
				{
					OFFSET 0.1237 -0.0542 -0.0051
				}
			}
		}
	}
}
MOTION
Frames: 11
Frame Time: 0.02
0.23837 -0.00251 0.09988 479.33057 -46.36368 -2.72047 26.10954 6.32635 -6.01954 6.41879 -0.08672 -0.83079 20.36317 -14.54768 14.13754 34.71437 79.10714 -4.12006 0.14769 16.21832 13.60667 -14.8843 41.50725 -73.50346 -7.32178 -1.48593 63.80776 -0.38332 -7.85025 -25.92788 -7.84185 -3.23547 -2.41157 65.9533 6.15814 7.13933 -31.5158 -8.84849 4.49334 3.1288
0.23908 -0.00277 0.10289 478.0906 -46.7997 -2.97985 25.05361 6.47143 -5.55793 6.13694 -0.13789 -0.83079 21.48408 -14.08733 14.52372 33.42346 79.26951 -4.04442 0.00049 17.26122 12.844 -15.07676 40.65149 -74.2002 -6.97482 -1.36263 64.41215 -0.34494 -8.344 -25.60118 -7.8977 -3.07599 -2.32137 66.73145 6.15633 6.65315 -31.69975 -9.01593 4.61809 3.21129
0.23996 -0.00311 0.10575 476.88453 -47.21545 -3.32109 23.93513 6.63371 -5.14742 5.78606 -0.17018 -0.83079 22.74953 -13.48476 14.62773 31.75461 79.38361 -4.00996 -0.13579 18.23767 12.04505 -15.29641 39.79956 -74.96769 -6.56671 -1.23629 65.07643 -0.30444 -8.4853 -25.33358 -7.91938 -2.82299 -2.17594 67.54996 6.17908 5.93303 -31.96083 -9.18762 4.7562 3.30246
0.24077 -0.00341 0.10867 475.67429 -47.64309 -3.6189 22.84507 6.78597 -4.72167 5.4714 -0.20986 -0.83079 23.96641 -12.94718 14.87625 30.23221 79.50137 -3.96495 -0.26114 19.24863 11.26229 -15.50175 38.93165 -75.70674 -6.1826 -1.10903 65.71355 -0.26255 -8.79302 -25.03911 -7.95617 -2.62308 -2.06169 68.34954 6.20113 5.36899 -32.1842 -9.35167 4.88347 3.38652
0.24158 -0.00371 0.11164 474.41776 -48.0606 -3.94379 21.75576 6.94727 -4.25963 5.13523 -0.25211 -0.83079 25.10882 -12.41171 15.06427 28.80794 79.70197 -3.88058 -0.4512 20.23846 10.47965 -15.72842 38.12658 -76.47526 -5.7916 -0.99123 66.34719 -0.23069 -9.08081 -24.73614 -7.99783 -2.37653 -1.92091 69.15342 6.18034 4.59301 -32.41734 -9.5404 5.03079 3.48392
0.24241 -0.00404 0.11447 473.26532 -48.49434 -4.231 20.64994 7.09331 -3.88572 4.82859 -0.28652 -0.83079 26.43779 -11.83871 15.30847 27.10259 79.71984 -3.88816 -0.50656 21.26036 9.68824 -15.91017 37.18859 -77.18185 -5.40875 -0.85305 67.00454 -0.17805 -9.32308 -24.4693 -8.02045 -2.20479 -1.82211 69.95766 6.25287 4.19937 -32.64942 -9.67894 5.13988 3.55582
0.24324 -0.00447 0.11699 472.39165 -48.97278 -4.39936 19.51167 7.201 -3.75026 4.61129 -0.29121 -0.83079 28.29397 -11.17103 15.7716 24.59163 79.20115 -4.16106 -0.17081 22.35317 8.88669 -15.98536 35.90803 -77.69986 -5.06996 -0.66144 67.70009 -0.06029 -9.53593 -24.27392 -7.99385 -2.27341 -1.85871 70.74738 6.59263 4.9719 -32.85413 -9.67227 5.13604 3.55235
0.24408 -0.00493 0.11937 471.62165 -49.46888 -4.52604 18.35921 7.29157 -3.70105 4.42779 -0.29142 -0.83079 30.3259 -10.47401 16.30008 21.83214 78.50648 -4.52233 0.29595 23.48646 8.07743 -16.00864 34.49033 -78.14657 -4.74402 -0.45004 68.41985 0.07699 -9.71221 -24.11639 -7.94968 -2.41896 -1.93857 71.53658 7.02264 6.12865 -33.05613 -9.61576 5.09394 3.52338
0.24491 -0.00538 0.1218 470.80398 -49.96011 -4.66821 17.21457 7.38461 -3.60743 4.23481 -0.30195 -0.83079 32.24599 -9.80705 16.80166 19.26748 77.92041 -4.82972 0.68845 24.62397 7.26771 -16.03795 33.11668 -78.61987 -4.41068 -0.24514 69.1374 0.19988 -9.89821 -23.95173 -7.91641 -2.52252 -1.99489 72.32968 7.40108 7.07513 -33.26331 -9.58566 5.07206 3.50794
0.24577 -0.00583 0.12431 469.98903 -50.43772 -4.82744 16.06205 7.49987 -3.53635 4.01467 -0.27601 -0.83079 34.30217 -9.06642 17.28443 16.34857 77.21424 -5.19525 1.14375 25.66535 6.47089 -16.14136 31.81384 -79.12167 -4.0796 -0.04667 69.82086 0.34566 -10.10228 -23.74682 -7.86988 -2.6523 -2.06557 73.10964 7.82468 8.16242 -33.45706 -9.54015 5.03887 3.48474
0.24656 -0.00628 0.12662 469.19362 -50.9477 -4.94063 14.92329 7.56558 -3.43963 3.85992 -0.32621 -0.83079 36.11957 -8.47182 17.82216 14.10765 76.71421 -5.46151 1.49888 26.91534 5.64904 -16.0792 30.339 -79.54523 -3.74995 0.16488 70.5791 0.44898 -10.26316 -23.63354 -7.84703 -2.74713 -2.11742 73.91519 8.17565 9.05255 -33.67641 -9.51447 5.01977 3.47138
